<svg width="35" height="32" viewBox="0 0 35 32" fill="none" xmlns="http://www.w3.org/2000/svg">
<g filter="url(#filter0_ii_213_112)">
<path d="M17.9413 2.60422C11.7618 2.60422 6.60794 4.68288 6.60794 7.93755C6.60794 11.1922 11.7618 13.2709 17.9413 13.2709C24.1208 13.2709 29.2746 11.1922 29.2746 7.93755C29.2746 4.68288 24.1208 2.60422 17.9413 2.60422ZM6.60794 12.7709V15.9375C6.60794 19.1922 11.7618 21.2709 17.9413 21.2709C24.1208 21.2709 29.2746 19.1922 29.2746 15.9375V12.7709C26.7048 14.7575 22.6984 15.9375 17.9413 15.9375C13.1841 15.9375 9.17777 14.7575 6.60794 12.7709ZM6.60794 20.7709V23.9375C6.60794 27.1922 11.7618 29.2709 17.9413 29.2709C24.1208 29.2709 29.2746 27.1922 29.2746 23.9375V20.7709C26.7048 22.7575 22.6984 23.9375 17.9413 23.9375C13.1841 23.9375 9.17777 22.7575 6.60794 20.7709Z" fill="#848484"/>
</g>
<defs>
<filter id="filter0_ii_213_112" x="6.30794" y="2.30422" width="23.2667" height="27.2667" filterUnits="userSpaceOnUse" color-interpolation-filters="sRGB">
<feFlood flood-opacity="0" result="BackgroundImageFix"/>
<feBlend mode="normal" in="SourceGraphic" in2="BackgroundImageFix" result="shape"/>
<feColorMatrix in="SourceAlpha" type="matrix" values="0 0 0 0 0 0 0 0 0 0 0 0 0 0 0 0 0 0 127 0" result="hardAlpha"/>
<feOffset dx="0.3" dy="0.3"/>
<feGaussianBlur stdDeviation="0.15"/>
<feComposite in2="hardAlpha" operator="arithmetic" k2="-1" k3="1"/>
<feColorMatrix type="matrix" values="0 0 0 0 0 0 0 0 0 0 0 0 0 0 0 0 0 0 0.3 0"/>
<feBlend mode="normal" in2="shape" result="effect1_innerShadow_213_112"/>
<feColorMatrix in="SourceAlpha" type="matrix" values="0 0 0 0 0 0 0 0 0 0 0 0 0 0 0 0 0 0 127 0" result="hardAlpha"/>
<feOffset dx="-0.3" dy="-0.3"/>
<feGaussianBlur stdDeviation="0.15"/>
<feComposite in2="hardAlpha" operator="arithmetic" k2="-1" k3="1"/>
<feColorMatrix type="matrix" values="0 0 0 0 1 0 0 0 0 1 0 0 0 0 1 0 0 0 1 0"/>
<feBlend mode="normal" in2="effect1_innerShadow_213_112" result="effect2_innerShadow_213_112"/>
</filter>
</defs>
</svg>
